<svg id="svg" version="1.1" xmlns="http://www.w3.org/2000/svg" xmlns:xlink="http://www.w3.org/1999/xlink" width="400" height="400" viewBox="0, 0, 400,400"><g id="svgg"><path id="path0" d="M23.309 248.660 C 22.788 248.873,22.523 310.413,23.038 311.755 C 23.264 312.343,27.185 312.400,67.254 312.400 L 111.222 312.400 155.027 356.237 C 185.962 387.195,199.012 400.004,199.448 399.837 C 199.788 399.707,200.321 399.600,200.633 399.600 C 200.945 399.600,201.155 399.383,201.100 399.118 C 201.045 398.853,201.270 398.620,201.600 398.600 C 201.930 398.580,202.155 398.347,202.100 398.082 C 202.045 397.817,202.270 397.600,202.600 397.600 C 202.930 397.600,203.155 397.383,203.100 397.118 C 203.045 396.853,203.270 396.628,203.600 396.618 C 203.930 396.608,204.208 396.330,204.218 396.000 C 204.228 395.670,204.453 395.445,204.718 395.500 C 204.983 395.555,205.155 395.465,205.100 395.300 C 205.045 395.135,205.180 394.942,205.400 394.871 C 206.162 394.627,207.200 393.473,207.200 392.871 C 207.200 392.539,207.320 392.387,207.468 392.534 C 207.842 392.908,209.200 391.605,209.200 390.871 C 209.200 390.539,209.320 390.387,209.468 390.534 C 209.842 390.908,211.200 389.605,211.200 388.871 C 211.200 388.539,211.320 388.387,211.468 388.534 C 211.823 388.890,213.200 387.622,213.200 386.938 C 213.200 386.642,213.425 386.445,213.700 386.500 C 213.975 386.555,214.151 386.362,214.090 386.070 C 214.030 385.779,214.138 385.638,214.332 385.758 C 214.816 386.057,216.481 384.222,216.104 383.806 C 215.937 383.622,215.999 383.585,216.242 383.724 C 216.794 384.038,218.518 382.263,218.104 381.806 C 217.937 381.622,218.005 381.589,218.255 381.731 C 218.795 382.040,219.725 381.058,219.297 380.630 C 219.133 380.467,219.270 380.393,219.600 380.467 C 219.932 380.540,220.151 380.364,220.090 380.070 C 220.030 379.779,220.144 379.642,220.345 379.766 C 220.827 380.064,221.678 379.020,221.297 378.599 C 221.133 378.419,221.199 378.385,221.442 378.524 C 221.994 378.838,223.718 377.063,223.304 376.606 C 223.137 376.422,223.199 376.385,223.442 376.524 C 223.982 376.832,225.729 375.062,225.304 374.637 C 225.137 374.470,225.262 374.393,225.582 374.467 C 225.902 374.540,226.172 374.330,226.182 374.000 C 226.192 373.670,226.470 373.392,226.800 373.382 C 227.130 373.372,227.355 373.147,227.300 372.882 C 227.245 372.617,227.425 372.445,227.700 372.500 C 227.975 372.555,228.155 372.375,228.100 372.100 C 228.045 371.825,228.242 371.600,228.538 371.600 C 229.222 371.600,230.490 370.223,230.134 369.868 C 229.987 369.720,230.139 369.600,230.471 369.600 C 231.205 369.600,232.508 368.242,232.134 367.868 C 231.987 367.720,232.139 367.600,232.471 367.600 C 233.135 367.600,234.524 366.258,234.198 365.932 C 234.087 365.820,234.398 365.385,234.891 364.964 C 235.778 364.207,235.781 364.208,235.200 365.000 C 234.622 365.789,234.626 365.789,235.491 365.052 C 235.973 364.641,236.330 364.101,236.284 363.852 C 236.238 363.604,236.425 363.445,236.700 363.500 C 236.975 363.555,237.200 363.330,237.200 363.000 C 237.200 362.670,237.417 362.445,237.682 362.500 C 237.947 362.555,238.180 362.330,238.200 362.000 C 238.220 361.670,238.453 361.445,238.718 361.500 C 238.983 361.555,239.200 361.330,239.200 361.000 C 239.200 360.670,239.425 360.445,239.700 360.500 C 239.975 360.555,240.155 360.375,240.100 360.100 C 240.045 359.825,240.270 359.600,240.600 359.600 C 240.930 359.600,241.200 359.330,241.200 359.000 C 241.200 358.670,241.417 358.445,241.682 358.500 C 241.947 358.555,242.180 358.330,242.200 358.000 C 242.220 357.670,242.453 357.445,242.718 357.500 C 242.983 357.555,243.200 357.330,243.200 357.000 C 243.200 356.670,243.417 356.445,243.682 356.500 C 243.947 356.555,244.180 356.330,244.200 356.000 C 244.220 355.670,244.453 355.445,244.718 355.500 C 244.983 355.555,245.200 355.330,245.200 355.000 C 245.200 354.670,245.417 354.445,245.682 354.500 C 245.947 354.555,246.180 354.330,246.200 354.000 C 246.220 353.670,246.453 353.445,246.718 353.500 C 246.983 353.555,247.155 353.383,247.100 353.118 C 247.045 352.853,247.270 352.628,247.600 352.618 C 247.930 352.608,248.208 352.330,248.218 352.000 C 248.228 351.670,248.453 351.445,248.718 351.500 C 248.983 351.555,249.155 351.383,249.100 351.118 C 249.045 350.853,249.270 350.628,249.600 350.618 C 249.930 350.608,250.208 350.330,250.218 350.000 C 250.228 349.670,250.467 349.449,250.748 349.510 C 251.029 349.570,251.145 349.434,251.004 349.207 C 250.864 348.979,251.109 348.660,251.550 348.497 C 251.991 348.333,252.408 348.020,252.476 347.800 C 252.544 347.580,252.735 347.445,252.900 347.500 C 253.065 347.555,253.200 347.330,253.200 347.000 C 253.200 346.670,253.470 346.400,253.800 346.400 C 254.130 346.400,254.355 346.175,254.300 345.900 C 254.245 345.625,254.425 345.445,254.700 345.500 C 254.975 345.555,255.200 345.330,255.200 345.000 C 255.200 344.670,255.470 344.400,255.800 344.400 C 256.130 344.400,256.355 344.175,256.300 343.900 C 256.245 343.625,256.425 343.445,256.700 343.500 C 256.975 343.555,257.200 343.330,257.200 343.000 C 257.200 342.670,257.470 342.400,257.800 342.400 C 258.130 342.400,258.355 342.175,258.300 341.900 C 258.245 341.625,258.425 341.445,258.700 341.500 C 258.975 341.555,259.200 341.330,259.200 341.000 C 259.200 340.670,259.470 340.400,259.800 340.400 C 260.130 340.400,260.355 340.175,260.300 339.900 C 260.245 339.625,260.425 339.445,260.700 339.500 C 260.975 339.555,261.200 339.330,261.200 339.000 C 261.200 338.670,261.470 338.400,261.800 338.400 C 262.130 338.400,262.355 338.175,262.300 337.900 C 262.245 337.625,262.425 337.445,262.700 337.500 C 262.975 337.555,263.200 337.330,263.200 337.000 C 263.200 336.670,263.470 336.400,263.800 336.400 C 264.130 336.400,264.355 336.175,264.300 335.900 C 264.245 335.625,264.425 335.445,264.700 335.500 C 264.975 335.555,265.200 335.330,265.200 335.000 C 265.200 334.670,265.470 334.400,265.800 334.400 C 266.130 334.400,266.355 334.265,266.300 334.100 C 266.245 333.935,266.359 333.800,266.554 333.800 C 266.749 333.800,267.062 333.383,267.251 332.874 C 267.439 332.365,267.779 332.064,268.007 332.204 C 268.234 332.345,268.370 332.311,268.310 332.130 C 268.249 331.948,268.380 331.744,268.600 331.676 C 268.820 331.608,269.133 331.191,269.297 330.750 C 269.460 330.309,269.779 330.064,270.007 330.204 C 270.234 330.345,270.370 330.229,270.310 329.948 C 270.249 329.667,270.470 329.428,270.800 329.418 C 271.130 329.408,271.408 329.130,271.418 328.800 C 271.428 328.470,271.653 328.245,271.918 328.300 C 272.183 328.355,272.355 328.183,272.300 327.918 C 272.245 327.653,272.470 327.428,272.800 327.418 C 273.130 327.408,273.408 327.130,273.418 326.800 C 273.428 326.470,273.653 326.245,273.918 326.300 C 274.183 326.355,274.355 326.183,274.300 325.918 C 274.245 325.653,274.470 325.420,274.800 325.400 C 275.130 325.380,275.355 325.147,275.300 324.882 C 275.245 324.617,275.470 324.400,275.800 324.400 C 276.130 324.400,276.355 324.183,276.300 323.918 C 276.245 323.653,276.470 323.420,276.800 323.400 C 277.130 323.380,277.355 323.147,277.300 322.882 C 277.245 322.617,277.470 322.400,277.800 322.400 C 278.130 322.400,278.355 322.183,278.300 321.918 C 278.245 321.653,278.470 321.420,278.800 321.400 C 279.130 321.380,279.355 321.147,279.300 320.882 C 279.245 320.617,279.470 320.400,279.800 320.400 C 280.130 320.400,280.400 320.130,280.400 319.800 C 280.400 319.470,280.625 319.245,280.900 319.300 C 281.175 319.355,281.355 319.175,281.300 318.900 C 281.245 318.625,281.470 318.400,281.800 318.400 C 282.130 318.400,282.355 318.183,282.300 317.918 C 282.245 317.653,282.470 317.428,282.800 317.418 C 283.130 317.408,283.408 317.130,283.418 316.800 C 283.428 316.470,283.653 316.245,283.918 316.300 C 284.183 316.355,284.355 316.175,284.300 315.900 C 284.245 315.625,284.404 315.438,284.652 315.484 C 284.901 315.530,285.441 315.173,285.852 314.691 C 286.589 313.826,286.589 313.822,285.800 314.400 C 285.011 314.978,285.011 314.974,285.748 314.109 C 286.159 313.627,286.699 313.270,286.948 313.316 C 287.196 313.362,287.356 313.178,287.302 312.907 C 287.225 312.519,296.584 312.405,331.302 312.372 C 355.556 312.349,375.621 312.316,375.891 312.298 C 376.274 312.274,376.384 305.318,376.395 280.581 L 376.409 248.896 375.505 248.653 C 373.805 248.198,261.200 248.366,261.200 248.824 C 261.200 249.057,260.992 249.119,260.738 248.962 C 260.484 248.805,260.378 248.841,260.503 249.043 C 260.627 249.244,260.475 249.756,260.165 250.181 C 259.854 250.605,259.600 250.806,259.600 250.626 C 259.600 250.446,258.978 250.997,258.218 251.850 C 257.458 252.702,256.668 253.555,256.463 253.745 C 255.980 254.189,254.316 255.853,253.800 256.407 C 253.580 256.643,252.702 257.458,251.850 258.218 C 250.997 258.978,250.446 259.600,250.626 259.600 C 250.806 259.600,250.605 259.854,250.181 260.165 C 249.756 260.475,249.227 260.626,249.004 260.500 C 248.782 260.375,248.720 260.406,248.868 260.570 C 249.245 260.991,247.565 262.826,247.078 262.525 C 246.857 262.388,246.793 262.465,246.936 262.696 C 247.079 262.927,246.926 263.219,246.598 263.346 C 246.269 263.472,246.000 263.845,246.000 264.175 C 246.000 264.544,245.769 264.686,245.400 264.545 C 244.856 264.336,244.602 264.808,244.763 265.730 C 244.794 265.911,244.635 265.945,244.410 265.806 C 244.184 265.667,244.000 265.828,244.000 266.164 C 244.000 266.575,243.771 266.693,243.300 266.524 C 242.915 266.386,242.720 266.406,242.867 266.570 C 243.170 266.907,241.810 268.400,241.200 268.400 C 240.980 268.400,240.821 268.535,240.847 268.700 C 240.973 269.497,240.760 270.022,240.400 269.800 C 240.180 269.664,240.000 269.743,240.000 269.976 C 240.000 270.209,239.719 270.400,239.376 270.400 C 239.033 270.400,238.844 270.548,238.956 270.729 C 239.188 271.104,237.804 272.400,237.172 272.400 C 236.941 272.400,236.852 272.561,236.974 272.758 C 237.096 272.955,236.926 273.219,236.598 273.346 C 236.269 273.472,236.000 273.845,236.000 274.175 C 236.000 274.570,235.773 274.688,235.334 274.519 C 234.917 274.359,234.767 274.423,234.932 274.690 C 235.077 274.924,234.926 275.219,234.598 275.346 C 234.269 275.472,234.000 275.845,234.000 276.175 C 234.000 276.575,233.767 276.691,233.300 276.524 C 232.915 276.386,232.720 276.406,232.867 276.570 C 233.188 276.927,231.793 278.400,231.133 278.400 C 230.877 278.400,230.772 278.505,230.900 278.633 C 231.204 278.937,229.740 280.400,229.133 280.400 C 228.877 280.400,228.772 280.505,228.900 280.633 C 229.204 280.937,227.740 282.400,227.133 282.400 C 226.877 282.400,226.772 282.505,226.900 282.633 C 227.204 282.937,225.740 284.400,225.133 284.400 C 224.877 284.400,224.772 284.505,224.900 284.633 C 225.204 284.937,223.740 286.400,223.133 286.400 C 222.877 286.400,222.772 286.505,222.900 286.633 C 223.204 286.937,221.740 288.400,221.133 288.400 C 220.877 288.400,220.772 288.505,220.900 288.633 C 221.191 288.925,219.752 290.400,219.176 290.400 C 218.943 290.400,218.822 290.535,218.906 290.700 C 219.106 291.091,211.722 298.389,211.426 298.093 C 211.302 297.968,211.200 298.077,211.200 298.333 C 211.200 298.940,209.737 300.404,209.433 300.100 C 209.305 299.972,209.200 300.077,209.200 300.333 C 209.200 300.940,207.737 302.404,207.433 302.100 C 207.305 301.972,207.200 302.077,207.200 302.333 C 207.200 302.940,205.737 304.404,205.433 304.100 C 205.305 303.972,205.200 304.077,205.200 304.333 C 205.200 304.940,203.737 306.404,203.433 306.100 C 203.305 305.972,203.200 306.077,203.200 306.333 C 203.200 306.940,201.737 308.404,201.433 308.100 C 201.305 307.972,201.200 308.077,201.200 308.333 C 201.200 308.590,200.831 309.169,200.380 309.620 L 199.560 310.440 196.588 307.478 C 194.954 305.849,193.563 304.571,193.497 304.636 C 193.431 304.702,193.022 304.225,192.589 303.576 C 192.155 302.927,191.485 302.294,191.100 302.171 C 190.715 302.047,190.400 301.804,190.400 301.631 C 190.400 301.223,179.973 290.800,179.564 290.800 C 179.393 290.800,179.153 290.485,179.029 290.100 C 178.906 289.715,178.273 289.045,177.624 288.611 C 176.975 288.178,176.522 287.745,176.617 287.650 C 176.712 287.555,176.217 287.055,175.517 286.539 C 174.817 286.022,174.350 285.600,174.479 285.600 C 174.607 285.600,173.157 284.009,171.256 282.063 C 169.355 280.118,167.665 278.599,167.500 278.687 C 167.335 278.775,167.200 278.661,167.200 278.433 C 167.200 278.205,160.525 271.357,152.366 263.215 L 137.533 248.411 80.666 248.436 C 49.390 248.449,23.579 248.550,23.309 248.660 " stroke="none" fill="#fc6434" fill-rule="evenodd"></path><path id="path1" d="M22.800 31.400 L 22.800 62.800 199.600 62.800 L 376.400 62.800 376.400 31.400 L 376.400 0.000 199.600 0.000 L 22.800 0.000 22.800 31.400 " stroke="none" fill="#a4a44c" fill-rule="evenodd"></path><path id="path2" d="M22.800 155.600 L 22.800 187.200 199.600 187.200 L 376.400 187.200 376.400 155.600 L 376.400 124.000 199.600 124.000 L 22.800 124.000 22.800 155.600 " stroke="none" fill="#fcc404" fill-rule="evenodd"></path><path id="path3" d="" stroke="none" fill="#e4a42c" fill-rule="evenodd"></path><path id="path4" d="" stroke="none" fill="#1007028" fill-rule="evenodd"></path></g></svg>